# xmcd CD database file
#
# Track frame offsets:
#	150
#	15126
#	27955
#	41613
#	50626
#	71031
#	81508
#	94375
#	107347
#	123960
#	133757
#	145977
#
# Disc length: 2127 seconds
#
# Revision: 0
# Processed by: cddbd v1.4PL0 Copyright (c) Steve Scherf et al.
# Submitted via: CDex 1.40Release
#
DISCID=a2084d0c
DTITLE=Mississippi Fred McDowell - Heritage of the Blues
DYEAR=2003
DGENRE=Blues
TTITLE0=Waiting for My Baby
TTITLE1=The Girl I'm Loving
TTITLE2=Going Down South, Carry My Whip
TTITLE3=Goin' Over the Hill
TTITLE4=Diving Duck Blues
TTITLE5=My Baby Don't Treat Me Like Human Kind
TTITLE6=Jim Steam Killed Lula
TTITLE7=Just a Little More Faith
TTITLE8=Down on Dankin's Farm
TTITLE9=Pea Vine Special
TTITLE10=You Got to Move
TTITLE11=Keep Your Lamp Trimmed and Burning
EXTD=YEAR: 2003 ID3G: 0
EXTT0=
EXTT1=
EXTT2=
EXTT3=
EXTT4=
EXTT5=
EXTT6=
EXTT7=
EXTT8=
EXTT9=
EXTT10=
EXTT11=
PLAYORDER=
